# xmcd
#
# Track frame offsets:
# 150
# 4899
# 35361
# 38637
# 64454
# 67659
# 105201
# 108778
# 146751
# 150801
# 183204
# 187407
# 209606
# 236730
#
# Disc length: 3611 seconds
#
#
# Revision: 0
# Processed by: cddbd v1.5.1PL2 Copyright (c) Steve Scherf et al.
# Submitted via: FreeRIP 2.944 
#
DISCID=b60e190e
DTITLE=krzak - krzak'i
DYEAR=1900
DGENRE=Blues
TTITLE0=poczatek konca czyli trawa na sniadanie
TTITLE1=lista kowbojow
TTITLE2=plynny owoc
TTITLE3=kim jestes-listonoszem?
TTITLE4=blady jak sol
TTITLE5=come on
TTITLE6=kosma
TTITLE7=heartbreaker girl
TTITLE8=ryba
TTITLE9=blues dla nieobecnych
TTITLE10=pije kuba wsrod nocnej ciszy
TTITLE11=kierunkowy 5074
TTITLE12=kim jestes-listonoszem ?
TTITLE13=heartbreaker girl
EXTD=
EXTT0=
EXTT1=
EXTT2=
EXTT3=
EXTT4=
EXTT5=
EXTT6=
EXTT7=
EXTT8=
EXTT9=
EXTT10=
EXTT11=
EXTT12=
EXTT13=
PLAYORDER=
